<?xml version="1.0" encoding="UTF-8"?>
<svg id="Calque_2" data-name="Calque 2" xmlns="http://www.w3.org/2000/svg" viewBox="0 0 119.66 123.78">
  <defs>
    <style>
      .cls-1 {
        fill: none;
      }

      .cls-1, .cls-2 {
        stroke: #5f63aa;
      }

      .cls-1, .cls-2, .cls-3, .cls-4 {
        stroke-miterlimit: 10;
        stroke-width: 2px;
      }

      .cls-2 {
        fill: #9b9acc;
      }

      .cls-3 {
        fill: #b6bdc8;
        stroke: #6d7385;
      }

      .cls-5 {
        fill: #5b8eca;
        stroke-width: 0px;
      }

      .cls-4 {
        fill: #e8f3fd;
        stroke: #5b8eca;
      }
    </style>
  </defs>
  <g id="Calque_2-2" data-name="Calque 2">
    <g>
      <g>
        <polygon class="cls-2" points="27.67 122.69 11.33 100.02 1 109.69 1 10.06 75.22 9.5 99 110.35 27.67 122.69"/>
        <line class="cls-1" x1="27.67" y1="122.69" x2="1" y2="10.06"/>
      </g>
      <path class="cls-4" d="M11.58,15.41h59.25s14.75,69.25,45,78.5l-71,16.75s-20.01,0-33.25-95.25Z"/>
      <path class="cls-3" d="M14.33,9.5s9-12.59,6.25,10.66h5.25S29.83-14.59,9.58,9.5h4.75Z"/>
      <path class="cls-3" d="M54.75,9.5s9-12.59,6.25,10.66h5.25s4-34.75-16.25-10.66h4.75Z"/>
    </g>
    <g>
      <path class="cls-5" d="M52.45,63.4c.24,1.65.14,3.2-.27,4.65-.42,1.45-1.15,2.74-2.19,3.86-1.06,1.12-2.36,2.06-3.9,2.79-1.54.74-3.47,1.27-5.79,1.6-2.64.38-4.93.48-6.88.31-1.95-.17-3.55-.44-4.81-.82l-1.05-7.34.82-.12c1.35.61,2.91,1.08,4.67,1.42,1.76.34,3.32.41,4.7.21.82-.12,1.7-.32,2.64-.6.94-.28,1.7-.71,2.28-1.29.46-.45.81-.98,1.04-1.57.23-.6.28-1.4.13-2.42s-.47-1.74-.99-2.21c-.52-.47-1.15-.78-1.92-.92-.76-.15-1.66-.17-2.67-.06-1.02.12-1.91.23-2.69.34l-1.45.21-.85-5.95,1.34-.19c1.03-.15,1.97-.33,2.82-.54s1.56-.5,2.13-.86c.56-.37.98-.84,1.25-1.41.27-.56.34-1.28.21-2.16-.1-.68-.34-1.21-.72-1.6-.38-.39-.82-.67-1.33-.84-.58-.19-1.25-.29-1.99-.27s-1.37.06-1.88.13c-.83.12-1.67.34-2.5.66-.84.32-1.64.69-2.41,1.11-.6.33-1.22.74-1.86,1.23-.64.49-1.11.85-1.42,1.1l-.7.1-1.04-7.25c1.09-.67,2.6-1.37,4.51-2.12,1.91-.74,3.9-1.26,5.96-1.56s3.78-.36,5.31-.23c1.53.14,2.86.47,4,.98,1.25.55,2.25,1.33,2.98,2.34.73,1.02,1.2,2.21,1.39,3.59.27,1.92-.04,3.69-.95,5.29-.91,1.61-2.24,2.75-3.99,3.43l.05.32c.82,0,1.63.1,2.44.28.81.18,1.62.54,2.44,1.09.77.49,1.44,1.17,2.02,2.04.58.87.96,1.95,1.15,3.23Z"/>
      <path class="cls-5" d="M82.88,69.5l-22.35,3.2-.84-5.91,7.13-1.02-2.56-17.88-7.13,1.02-.79-5.52c1.05-.15,2.07-.37,3.08-.65,1.01-.28,1.8-.62,2.38-1.01.68-.47,1.17-1.04,1.48-1.71.31-.67.44-1.47.37-2.38l7.41-1.06,4,28.01,6.97-1,.84,5.91Z"/>
    </g>
  </g>
</svg>