<?xml version="1.0" encoding="UTF-8"?>
<svg id="Calque_2" data-name="Calque 2" xmlns="http://www.w3.org/2000/svg" viewBox="0 0 178.5 216.37">
  <defs>
    <style>
      .cls-1 {
        stroke: #be5304;
      }

      .cls-1, .cls-2, .cls-3, .cls-4, .cls-5, .cls-6, .cls-7, .cls-8, .cls-9, .cls-10 {
        stroke-miterlimit: 10;
      }

      .cls-1, .cls-2, .cls-3, .cls-5, .cls-6, .cls-7, .cls-9, .cls-10 {
        stroke-width: 2px;
      }

      .cls-1, .cls-2, .cls-4, .cls-8 {
        fill: none;
      }

      .cls-2, .cls-5 {
        stroke: #5f63aa;
      }

      .cls-3 {
        stroke: #878787;
      }

      .cls-3, .cls-11 {
        fill: #f6f6f6;
      }

      .cls-11, .cls-12, .cls-13, .cls-14, .cls-15 {
        stroke-width: 0px;
      }

      .cls-4 {
        stroke: #293232;
        stroke-width: 4px;
      }

      .cls-16 {
        font-family: Tahoma-Bold, Tahoma;
        font-size: 33px;
        font-weight: 700;
      }

      .cls-16, .cls-12 {
        fill: #293232;
      }

      .cls-5 {
        fill: #9b9acc;
      }

      .cls-13 {
        fill: #86bce7;
      }

      .cls-6 {
        fill: #b6bdc8;
        stroke: #6d7385;
      }

      .cls-7 {
        fill: #ffdb2e;
        stroke: #f39200;
      }

      .cls-8 {
        stroke: #1b2526;
        stroke-width: 3px;
      }

      .cls-14 {
        fill: #5b8eca;
      }

      .cls-15 {
        fill: #fff;
      }

      .cls-9 {
        fill: #e8f3fd;
        stroke: #5b8eca;
      }

      .cls-10 {
        fill: #fcf7cc;
        stroke: #1d1d1b;
      }
    </style>
  </defs>
  <g id="Calque_2-2" data-name="Calque 2">
    <path class="cls-10" d="M177.5,20.67v131.54c0,10.86-6.83,19.67-15.25,19.67h-24.25v37.91l-11.79-37.91H16.25c-8.42,0-15.25-8.81-15.25-19.67V20.67C1,9.81,7.83,1,16.25,1h146c8.42,0,15.25,8.81,15.25,19.67Z"/>
    <g>
      <circle class="cls-7" cx="87.21" cy="104.8" r="36"/>
      <g>
        <path class="cls-3" d="M80.89,135.03c-1.73,1.45-4.2,1.63-6.12.44l-24.61-15.28c-.98-.61-2.24.09-2.24,1.24l9.17,14.05-3.2-4.91-3.34,9.07c-1.69,4.61.74,9.7,3.16,11.5l20.2,8.67,14.29-10.72,2.58-10.45,3.69-11.08c.52-1.56-1.33-2.82-2.59-1.76l-11,9.24Z"/>
        <rect class="cls-3" x="70.68" y="152.16" width="25.3" height="8.45" rx="3.92" ry="3.92" transform="translate(-81.47 91.25) rotate(-40.38)"/>
      </g>
      <g>
        <ellipse class="cls-11" cx="71.25" cy="98.05" rx="12.83" ry="11.67" transform="translate(-38.24 150.03) rotate(-79.39)"/>
        <ellipse class="cls-13" cx="70.06" cy="96.26" rx="9.88" ry="9.25" transform="translate(-37.45 147.39) rotate(-79.39)"/>
        <ellipse class="cls-12" cx="69.44" cy="94.57" rx="6.67" ry="5.17" transform="translate(-36.3 145.41) rotate(-79.39)"/>
        <circle class="cls-15" cx="68.34" cy="91.82" r="2.5"/>
      </g>
      <g>
        <ellipse class="cls-11" cx="100.53" cy="100.4" rx="12.83" ry="11.67" transform="translate(-16.66 180.72) rotate(-79.39)"/>
        <ellipse class="cls-13" cx="99.34" cy="98.6" rx="9.88" ry="9.25" transform="translate(-15.87 178.09) rotate(-79.39)"/>
        <ellipse class="cls-12" cx="98.72" cy="96.92" rx="6.67" ry="5.17" transform="translate(-14.72 176.11) rotate(-79.39)"/>
        <circle class="cls-15" cx="97.62" cy="94.17" r="2.5"/>
      </g>
      <path class="cls-8" d="M64.87,81.11s7.5-9.75,15,0"/>
      <path class="cls-1" d="M71.44,123.12s12.77-10.72,26.99-2"/>
      <path class="cls-8" d="M102.13,81.11s-3.53,11.78-14.02,5.35"/>
    </g>
    <g>
      <g>
        <g>
          <polygon class="cls-5" points="138.52 55.51 132.47 47.59 128.65 50.97 128.65 16.16 156.13 15.96 164.93 51.2 138.52 55.51"/>
          <line class="cls-2" x1="138.52" y1="55.51" x2="128.65" y2="16.16"/>
        </g>
        <path class="cls-9" d="M132.56,18.03h21.94s5.46,24.2,16.66,27.43l-26.29,5.85s-7.41,0-12.31-33.28Z"/>
        <path class="cls-6" d="M133.58,15.96s3.33-4.4,2.31,3.73h1.94s1.48-12.14-6.02-3.73h1.76Z"/>
        <path class="cls-6" d="M148.55,15.96s3.33-4.4,2.31,3.73h1.94s1.48-12.14-6.02-3.73h1.76Z"/>
      </g>
      <path class="cls-14" d="M153.62,38.38l-9.05.94-.26-2.26,2.89-.3-.8-6.83-2.89.3-.25-2.11c.42-.04.84-.11,1.25-.21.41-.1.74-.21.97-.36.28-.17.48-.38.62-.63.14-.25.19-.55.18-.9l3-.31,1.25,10.7,2.82-.29.26,2.26Z"/>
    </g>
    <g>
      <g>
        <g>
          <polygon class="cls-5" points="18.56 55.51 12.52 47.59 8.69 50.97 8.69 16.16 36.17 15.96 44.98 51.2 18.56 55.51"/>
          <line class="cls-2" x1="18.56" y1="55.51" x2="8.69" y2="16.16"/>
        </g>
        <path class="cls-9" d="M12.61,18.03h21.94s5.46,24.2,16.66,27.43l-26.29,5.85s-7.41,0-12.31-33.28Z"/>
        <path class="cls-6" d="M13.63,15.96s3.33-4.4,2.31,3.73h1.94s1.48-12.14-6.02-3.73h1.76Z"/>
        <path class="cls-6" d="M28.59,15.96s3.33-4.4,2.31,3.73h1.94s1.48-12.14-6.02-3.73h1.76Z"/>
      </g>
      <g>
        <path class="cls-14" d="M27.74,34.79c.09.58.05,1.12-.1,1.63-.15.51-.43.96-.81,1.35-.39.39-.87.72-1.44.98-.57.26-1.28.44-2.14.56-.98.13-1.82.17-2.55.11-.72-.06-1.32-.15-1.78-.29l-.39-2.56.3-.04c.5.21,1.08.38,1.73.5.65.12,1.23.14,1.74.07.3-.04.63-.11.98-.21.35-.1.63-.25.85-.45.17-.16.3-.34.38-.55.09-.21.1-.49.05-.84s-.18-.61-.37-.77c-.19-.17-.43-.27-.71-.32-.28-.05-.61-.06-.99-.02-.38.04-.71.08-1,.12l-.54.07-.32-2.08.5-.07c.38-.05.73-.11,1.04-.19s.58-.18.79-.3c.21-.13.36-.29.46-.49.1-.2.13-.45.08-.76-.04-.24-.12-.42-.27-.56-.14-.13-.3-.23-.49-.29-.22-.07-.46-.1-.74-.1s-.51.02-.7.05c-.31.04-.62.12-.93.23-.31.11-.61.24-.89.39-.22.12-.45.26-.69.43-.24.17-.41.3-.53.38l-.26.04-.38-2.53c.41-.23.96-.48,1.67-.74.71-.26,1.44-.44,2.21-.54s1.4-.13,1.97-.08c.57.05,1.06.16,1.48.34.46.19.83.46,1.1.82.27.36.44.77.52,1.26.1.67-.02,1.29-.35,1.85-.34.56-.83.96-1.48,1.2l.02.11c.3,0,.6.03.9.1.3.06.6.19.9.38.28.17.53.41.75.71.21.3.36.68.42,1.13Z"/>
        <path class="cls-14" d="M39.01,36.93l-8.28,1.12-.31-2.06,2.64-.36-.95-6.25-2.64.36-.29-1.93c.39-.05.77-.13,1.14-.23.37-.1.67-.22.88-.35.25-.16.43-.36.55-.6.12-.23.16-.51.14-.83l2.74-.37,1.48,9.79,2.58-.35.31,2.06Z"/>
      </g>
    </g>
    <g>
      <line class="cls-4" x1="65.12" y1="31.73" x2="111.11" y2="31.73"/>
      <line class="cls-4" x1="100.56" y1="23.22" x2="110.41" y2="31.73"/>
      <line class="cls-4" x1="110.41" y1="31.73" x2="100.56" y2="40.24"/>
    </g>
    <text class="cls-16" transform="translate(130.26 99.99)"><tspan x="0" y="0">?</tspan></text>
  </g>
</svg>