<?xml version="1.0" encoding="UTF-8"?>
<svg id="Calque_2" data-name="Calque 2" xmlns="http://www.w3.org/2000/svg" viewBox="0 0 76.01 63.55">
  <defs>
    <style>
      .cls-1 {
        fill: #d0b0bd;
      }

      .cls-1, .cls-2, .cls-3, .cls-4, .cls-5 {
        stroke-width: 0px;
      }

      .cls-2 {
        fill: #e0bdad;
      }

      .cls-3 {
        fill: #293232;
      }

      .cls-4 {
        fill: #a3673e;
      }

      .cls-5 {
        fill: #8f5233;
      }
    </style>
  </defs>
  <g id="Calque_2-2" data-name="Calque 2">
    <polygon class="cls-5" points="63.18 12.38 60.29 8.04 64.83 0 66.95 9.09 63.18 12.38"/>
    <path class="cls-4" d="M76.01,23.11l-2.1,3.84c-.83,1.53-2.47,2.43-4.2,2.33l-3.46-.21c-2.61-.15-5.16.77-7.07,2.57l-2.13,2c-2.62,2.46-4.38,5.72-5.02,9.26l-3.72,20.65h-9.8l-.15-16.49h-1.21c-2.01,4.01-6.17,6.76-10.95,6.76s-8.74-2.62-10.8-6.47h-.72s-.44,16.2-.44,16.2l-8.99-.12L.44,39.76c-1.11-5.48-.09-11.19,2.84-15.95,1.11-1.79,2.63-3.24,4.4-4.25,1.78-1.02,3.8-1.59,5.91-1.61l29.78-.45c1.56-.02,3.09-.47,4.42-1.29l9.43-5.81-2.05-1.18.49-9.21,5.94,7.2-.49,1.17,14.9,14.74Z"/>
    <path class="cls-2" d="M7.67,18.99c-1.77,1-3.28,2.45-4.39,4.23,1.29,5.52,6.56,9.65,12.86,9.65,7.28,0,13.17-5.5,13.17-12.28,0-1.19-.19-2.35-.53-3.44l-15.2.23c-2.11.02-4.13.59-5.91,1.61Z"/>
    <path class="cls-2" d="M13.13,49.19c0-6.77-5.87-12.26-13.13-12.28.05,1.12.17,2.24.39,3.35l4.15,20.43c5.01-1.74,8.58-6.23,8.58-11.5Z"/>
    <path class="cls-2" d="M66.17,25.87c0,1.09.17,2.14.45,3.15l3.09.19c1.73.09,3.37-.81,4.2-2.33l2.1-3.84-5.95-5.88c-2.4,2.23-3.89,5.31-3.89,8.72Z"/>
    <path class="cls-1" d="M25.99,46.33c-4.28,0-8.2-1.01-11.24-2.69.5,6.31,5.51,11.27,11.62,11.27s11.35-5.2,11.64-11.73c-3.14,1.95-7.35,3.15-12.01,3.15Z"/>
    <circle class="cls-3" cx="62.84" cy="18.14" r="2.55"/>
  </g>
</svg>