<?xml version="1.0" encoding="UTF-8"?>
<svg id="Calque_2" data-name="Calque 2" xmlns="http://www.w3.org/2000/svg" viewBox="0 0 119.66 123.78">
  <defs>
    <style>
      .cls-1 {
        fill: none;
      }

      .cls-1, .cls-2 {
        stroke: #5f63aa;
      }

      .cls-1, .cls-2, .cls-3, .cls-4 {
        stroke-miterlimit: 10;
        stroke-width: 2px;
      }

      .cls-2 {
        fill: #9b9acc;
      }

      .cls-3 {
        fill: #b6bdc8;
        stroke: #6d7385;
      }

      .cls-5 {
        fill: #5b8eca;
        stroke-width: 0px;
      }

      .cls-4 {
        fill: #e8f3fd;
        stroke: #5b8eca;
      }
    </style>
  </defs>
  <g id="Calque_2-2" data-name="Calque 2">
    <g>
      <g>
        <polygon class="cls-2" points="27.67 122.69 11.33 100.02 1 109.69 1 10.06 75.22 9.5 99 110.35 27.67 122.69"/>
        <line class="cls-1" x1="27.67" y1="122.69" x2="1" y2="10.06"/>
      </g>
      <path class="cls-4" d="M11.58,15.41h59.25s14.75,69.25,45,78.5l-71,16.75s-20.01,0-33.25-95.25Z"/>
      <path class="cls-3" d="M14.33,9.5s9-12.59,6.25,10.66h5.25S29.83-14.59,9.58,9.5h4.75Z"/>
      <path class="cls-3" d="M54.75,9.5s9-12.59,6.25,10.66h5.25s4-34.75-16.25-10.66h4.75Z"/>
    </g>
    <path class="cls-5" d="M68.44,73.65l-24.44,2.7-.71-6.46,7.8-.86-2.16-19.55-7.8.86-.67-6.04c1.14-.13,2.27-.33,3.38-.6,1.11-.27,1.99-.61,2.63-1.02.75-.49,1.31-1.09,1.67-1.81.36-.72.53-1.58.48-2.58l8.1-.89,3.38,30.63,7.63-.84.71,6.46Z"/>
  </g>
</svg>