<?xml version="1.0" encoding="UTF-8"?>
<svg id="Calque_2" data-name="Calque 2" xmlns="http://www.w3.org/2000/svg" viewBox="0 0 114.35 235.13">
  <defs>
    <style>
      .cls-1 {
        fill: #fff;
      }

      .cls-1, .cls-2 {
        stroke: #293232;
      }

      .cls-1, .cls-2, .cls-3, .cls-4, .cls-5, .cls-6, .cls-7 {
        stroke-miterlimit: 10;
      }

      .cls-1, .cls-5 {
        stroke-width: 3px;
      }

      .cls-2, .cls-6 {
        fill: none;
        stroke-width: 4px;
      }

      .cls-3 {
        stroke: #575756;
      }

      .cls-3, .cls-4 {
        fill: #c6c6c6;
      }

      .cls-3, .cls-4, .cls-7 {
        stroke-width: 2px;
      }

      .cls-8 {
        fill: #293232;
      }

      .cls-8, .cls-9 {
        stroke-width: 0px;
      }

      .cls-4 {
        stroke: #706f6f;
      }

      .cls-5, .cls-7 {
        fill: #7d4e24;
        stroke: #432918;
      }

      .cls-9 {
        fill: #432918;
      }

      .cls-6 {
        stroke: #6d7385;
      }
    </style>
  </defs>
  <g id="Calque_2-2" data-name="Calque 2">
    <g>
      <path class="cls-6" d="M68.65,233.13c-42.87,0-45.13-34.75-45.13-77.62,0-30.01-6.51-115.18,23.5-115.18,27,0,25.75,77.87,25.75,98.88,0,14.7.45,83.87-14.25,83.87-20.78,0-20.39-65.59-20.39-75.89,0-7.2-6.61-85.11,9.71-85.11s12.46,76.16,12.46,81.2c0,3.53-2.86,31.45-6.39,31.45-2.47,0-4.47-27.06-4.47-29.53,0-1.73,1.1-15.12,2.83-15.12"/>
      <g>
        <circle class="cls-1" cx="27.19" cy="94.43" r="17.67"/>
        <circle class="cls-8" cx="21.15" cy="94.43" r="11.62"/>
      </g>
      <g>
        <circle class="cls-1" cx="74.27" cy="94.43" r="17.67"/>
        <circle class="cls-8" cx="68.23" cy="94.43" r="11.62"/>
      </g>
      <path class="cls-2" d="M17.95,72.64s10.63-19.67,18.48,0"/>
      <path class="cls-2" d="M61.37,72.64s10.63-19.67,18.48,0"/>
      <g>
        <path class="cls-5" d="M19.17,49.09s-.3-34.09,29.51-32.56c29.8,1.54,22.06,27.95,21.76,32.56l10.87,4.93c1.4.63,1.27,2.7-.18,3.17-3.45,1.11-9.66,1.52-19.03-3.49,0,0-39.94,10.99-58.42,9.64,0,0-10.73-4.11,15.5-14.25Z"/>
        <path class="cls-5" d="M19.17,49.09s36.46,10.38,51.26,0"/>
        <path class="cls-5" d="M62.04,52.57c8.79-20.95-13.36-36.04-13.36-36.04"/>
        <g>
          <path class="cls-5" d="M47.74,15.89s4.97-1.87-.99-12.72c0,0-4.97,9.47.99,12.72Z"/>
          <path class="cls-5" d="M48,16.32s4.73,2.44,8.29-9.48c0,0-10.09,2.79-8.29,9.48Z"/>
        </g>
      </g>
      <g>
        <ellipse class="cls-9" cx="84.48" cy="169.4" rx="3.76" ry="9.32" transform="translate(-91.3 239.65) rotate(-85.28)"/>
        <path class="cls-7" d="M59.52,143.93s9.94-.69,8.9,15.03c0,0-3.86,29.47,13.45,29.46,15.47,0,11.67-18.59,11.67-18.59,0,0-6.33,1.55-16.02-3.57,0,0-4.94,1.3-3.95,9.7,0,0,2.37-18.39-2.37-27.88,0,0-2.18-5.93-11.67-7.32v3.16Z"/>
        <path class="cls-3" d="M59.52,144.18l-.49-3.42h-5.83s-3.7,1.26.28,2.79l6.05.63Z"/>
      </g>
      <g>
        <path class="cls-4" d="M91.02,155.84c-1.02-1.32-1.39-2.78-.91-4.18.96-2.83,5.09-4.53,9.84-4.29-.48-.78-.63-1.64-.35-2.46.77-2.25,4.43-3.45,8.19-2.66s6.19,3.25,5.42,5.5c-.48,1.41-2.11,2.41-4.18,2.76,1.99,1.62,2.93,3.65,2.28,5.57-1.15,3.39-6.83,5.15-12.68,3.93-.9-.19-1.75-.43-2.54-.73.2.68.19,1.4-.05,2.11-.8,2.36-3.9,3.77-6.92,3.14s-4.81-3.05-4.01-5.42c.71-2.1,3.24-3.44,5.91-3.27Z"/>
        <path class="cls-4" d="M110.05,136.3c-.6,1.38-2.82,2.03-4.96,1.46s-3.39-2.15-2.79-3.52,2.82-2.03,4.96-1.46,3.39,2.15,2.79,3.52Z"/>
      </g>
    </g>
  </g>
</svg>