<?xml version="1.0" encoding="UTF-8"?>
<svg id="Calque_2" data-name="Calque 2" xmlns="http://www.w3.org/2000/svg" viewBox="0 0 133.5 133.5">
  <defs>
    <style>
      .cls-1 {
        fill: #293232;
      }

      .cls-1, .cls-2, .cls-3 {
        stroke-width: 0px;
      }

      .cls-4 {
        fill: #c5e3eb;
        stroke: #6e7681;
        stroke-miterlimit: 10;
        stroke-width: 13px;
      }

      .cls-2 {
        fill: #b34c68;
      }

      .cls-3 {
        fill: #fef8f7;
      }
    </style>
  </defs>
  <g id="Calque_2-2" data-name="Calque 2">
    <circle class="cls-4" cx="66.75" cy="66.75" r="60.25"/>
    <circle class="cls-1" cx="66.75" cy="66.75" r="4"/>
    <rect class="cls-2" x="65.5" y="13.46" width="2.5" height="10.25"/>
    <rect class="cls-2" x="65.5" y="109.79" width="2.5" height="10.25"/>
    <rect class="cls-2" x="114" y="61.62" width="2.5" height="10.25" transform="translate(182 -48.5) rotate(90)"/>
    <rect class="cls-2" x="16.67" y="61.62" width="2.5" height="10.25" transform="translate(84.67 48.83) rotate(90)"/>
    <polygon class="cls-1" points="72.19 65.69 66.8 66.75 66.6 61.04 96.19 26.15 72.19 65.69"/>
    <polygon class="cls-1" points="68.92 71.65 68 67.66 72.25 67.38 98.94 88.65 68.92 71.65"/>
    <path class="cls-3" d="M38.49,28.25c.51-.35,8.99-5.75,13.01-5.25,1.18.15,6.25,2.43,5.31,2.59-1.25.21-11.43,4.79-14.8,7.48-8.26,6.62-10.02,11.3-10.2,10.73-.47-1.51,1.37-11.93,6.68-15.55Z"/>
  </g>
</svg>