<?xml version="1.0" encoding="UTF-8"?>
<svg id="Calque_2" data-name="Calque 2" xmlns="http://www.w3.org/2000/svg" viewBox="0 0 60.66 52.84">
  <defs>
    <style>
      .cls-1 {
        fill: #c47046;
      }

      .cls-1, .cls-2, .cls-3, .cls-4 {
        stroke-width: 0px;
      }

      .cls-2 {
        fill: #af5831;
      }

      .cls-3 {
        fill: #293232;
      }

      .cls-4 {
        fill: #f0d077;
      }
    </style>
  </defs>
  <g id="Calque_2-2" data-name="Calque 2">
    <g>
      <polygon class="cls-2" points="34.38 45.9 31.19 49.53 24.15 46.56 24.13 25.9 27.51 25.9 27.43 44.87 34.38 45.9"/>
      <path class="cls-4" d="M.17,14.82c-1.46,12.79,6.64,23.12,20.5,23.17,17.42.05,25.04-8.88,26.67-18.75.74-4.47,1.87-12.18-.5-15.75-2.76-4.16-9.35-4.05-13.17-2.5-2.46,1-4.58,8.38-2.33,13.75l-31.17.08Z"/>
      <path class="cls-1" d="M50.79,13.18l-3.39-.92v-2.96h13.26l-3.11,3.05c-2.06,1.15-4.48,1.44-6.76.83Z"/>
      <circle class="cls-3" cx="43.43" cy="7.14" r="2.16"/>
      <polygon class="cls-1" points="28.94 49.22 25.76 52.84 18.71 49.87 18.69 37.22 22.07 37.22 21.99 48.18 28.94 49.22"/>
    </g>
  </g>
</svg>