<?xml version="1.0" encoding="UTF-8"?>
<svg id="Calque_2" data-name="Calque 2" xmlns="http://www.w3.org/2000/svg" viewBox="0 0 58.78 62.53">
  <defs>
    <style>
      .cls-1 {
        fill: #d9eef6;
      }

      .cls-1, .cls-2, .cls-3 {
        stroke-width: 0px;
      }

      .cls-4 {
        fill: #0d9a39;
        stroke: #fff;
        stroke-miterlimit: 10;
      }

      .cls-2 {
        fill: #b0d9f5;
      }

      .cls-3 {
        fill: #86bce7;
      }
    </style>
  </defs>
  <g id="Calque_2-2" data-name="Calque 2">
    <g>
      <path class="cls-3" d="M58.77,8.45c.48,5.02-10.11,10.13-23.66,11.43-13.55,1.3-24.92-1.72-25.4-6.74S22.86,5.77,33.37,1.72c12.7-4.9,24.92,1.72,25.4,6.74Z"/>
      <path class="cls-1" d="M8.27,54.26L.06,16.5S-2.7-3.16,28.55,7.48c31.25,10.64,29.95-2,29.95-2l-2.67,39.98c-.42,6.25-5.03,11.41-11.2,12.53l-24.24,4.38c-5.56,1.01-10.93-2.58-12.13-8.1Z"/>
      <path class="cls-2" d="M55.24,50.08c-3.12-3.49-13.91-5.32-26.05-4.16-10.24.98-18.53,3.82-21.66,7.02l.65,2.05c1.36,4.3,6.81,7.22,12.32,6.61l24.01-2.65c5.92-.65,10.26-4.29,10.73-8.88Z"/>
      <path class="cls-4" d="M19.91,37.07s-.3-18.17,23.69-16.88l3.21-5.42,3.37,14.77-11.93,4.62,3.3-6.82s-10.85-2.66-21.64,9.72Z"/>
      <path class="cls-4" d="M53.18,34.21s-2.23,18.02-25.86,13.69l-3.94,4.95-1.29-15.05,12.49-3.06-4.23,6.33s10.4,4.02,22.83-6.86Z"/>
    </g>
  </g>
</svg>